<svg width="108" height="108" viewBox="0 0 108 108" fill="none" xmlns="http://www.w3.org/2000/svg">
<rect width="108" height="108" rx="54" fill="#65DC98"/>
<path d="M58.3212 14L50.1853 14.0154C37.3459 15.3328 26.8011 19.6964 20.4958 26.2933C15.1821 31.8559 13.1164 38.5969 14.3431 46.331C16.6949 61.0995 31.9687 81.5695 44.0517 89.9983C47.0708 92.1081 50.9226 94.0841 52.6515 94.6244C53.4715 94.8508 54.0753 95 54.7681 95C55.4673 95 56.1474 94.8405 56.7957 94.5317C64.6392 91.4288 72.292 84.8576 80.8728 73.8456C86.8221 66.2041 93.7884 56.072 94.8562 45.5695C96.5851 28.6295 82.6207 16.5317 58.3212 14ZM58.086 17.5506C79.8939 19.8508 92.0087 30.2196 90.4832 45.2916C89.4917 55.1355 82.4046 65.2316 77.1544 71.9571C69.0313 82.3876 61.9315 88.5575 54.7745 91.3928C54.7427 91.4031 54.7173 91.4134 54.6982 91.4185C54.5139 91.3877 54.266 91.3105 54.1452 91.2796C53.1981 90.9863 49.6578 89.2161 46.931 87.3122C35.6743 79.4648 20.9026 59.6535 18.7098 45.8782C17.6292 39.1063 19.3962 33.2504 23.9726 28.47C29.5533 22.6295 38.9922 18.7496 50.465 17.5609L58.086 17.5506Z" fill="#030104"/>
<path d="M26.7439 49.1458C26.2163 49.2847 25.8921 49.5729 25.9112 50.1441C27.8689 60.1167 36.1827 68.3396 50.3315 66.2299C48.9776 55.2642 40.9879 49.6758 26.7439 49.1458Z" fill="#030104"/>
<path d="M60.2661 66.5643C74.2242 65.9211 83.2118 59.4683 84.2669 49.4854C70.0736 48.6158 58.8169 54.7701 60.2661 66.5643Z" fill="#030104"/>
</svg>
